<?xml version="1.0" encoding="iso-8859-1"?>
<!-- Generator: Adobe Illustrator 19.0.0, SVG Export Plug-In . SVG Version: 6.00 Build 0)  -->
<svg version="1.1" id="Layer_1" xmlns="http://www.w3.org/2000/svg" xmlns:xlink="http://www.w3.org/1999/xlink" x="0px" y="0px"
	 viewBox="0 0 512 512" style="enable-background:new 0 0 512 512;" xml:space="preserve">
<g>
	<polygon style="fill:#CCA400;" points="341.431,259.498 299.078,283.649 214.201,283.649 171.849,259.498 235.687,209.757 
		311.597,214.808 	"/>
	<polygon style="fill:#CCA400;" points="392.328,99.09 340.225,221.332 172.564,228.926 119.672,99.269 	"/>
</g>
<path style="fill:#FFD422;" d="M301.786,242.434l-12.208,132.774c-0.618,6.891,4.809,12.828,11.728,12.828l0,0
	c7.817,0,14.213,6.396,14.213,14.213v27.596c0,7.817-6.396,14.213-14.213,14.213h-90.613c-7.817,0-14.213-6.396-14.213-14.213
	V402.25c0-7.817,6.396-14.213,14.213-14.213l0,0c6.92,0,12.348-5.937,11.728-12.828l-1.974-21.994l-4.307-47.969l-5.624-62.645
	l20.641-42.853h62.651L301.786,242.434z"/>
<path style="fill:#CCA400;" d="M334.275,512H177.724c-6.779,0-12.274-5.496-12.274-12.274v-43.391
	c0-6.779,5.496-12.274,12.274-12.274h156.551c6.779,0,12.274,5.496,12.274,12.274v43.391C346.549,506.504,341.055,512,334.275,512z"
	/>
<path style="opacity:0.17;fill:#663A00;enable-background:new    ;" d="M334.275,512H177.724c-6.779,0-12.274-5.496-12.274-12.274
	V478.03h181.1v21.696C346.549,506.504,341.055,512,334.275,512z"/>
<polygon style="opacity:0.48;fill:#CCA400;enable-background:new    ;" points="313.974,253.856 256.64,270.191 203.108,253.856 
	203.108,218.174 313.974,218.174 "/>
<polygon style="fill:#FFCD00;" points="235.499,32.682 255.935,0.132 304.301,76.944 392.328,99.09 334.221,168.825 
	340.361,259.389 256.083,225.673 171.85,259.498 177.871,168.928 119.672,99.269 207.67,77.008 "/>
<g>
	<path style="fill:#FFE477;" d="M191.751,158.741c-2.407,0-4.78-1.105-6.316-3.191c-2.565-3.485-1.819-8.389,1.666-10.954
		l128.509-94.572c3.484-2.564,8.387-1.819,10.954,1.666c2.565,3.485,1.818,8.389-1.667,10.954l-128.509,94.572
		C194.991,158.245,193.364,158.741,191.751,158.741z"/>
	<path style="fill:#FFE477;" d="M145.962,245.682c-2.389,0-4.746-1.089-6.284-3.15c-2.589-3.467-1.875-8.377,1.592-10.965
		l163.156-121.771c3.468-2.589,8.379-1.875,10.965,1.592c2.589,3.467,1.875,8.377-1.592,10.965L150.642,244.126
		C149.236,245.176,147.592,245.682,145.962,245.682z"/>
</g>
<g style="opacity:0.28;">
	<path style="fill:#FFFFFF;" d="M336.783,84.985l-32.483-8.172L255.935,0l-20.436,32.552l-27.828,44.325l-88,22.262l58.199,69.658
		l-0.671,10.088C226.707,173.45,291.6,152.228,336.783,84.985z"/>
</g>
<g style="opacity:0.41;">
	<path style="fill:#CCA400;" d="M196.48,419.053v12.904c0,7.817,6.396,14.213,14.213,14.213h90.613
		c7.817,0,14.213-6.396,14.213-14.213v-12.904H196.48z"/>
</g>
<g>
</g>
<g>
</g>
<g>
</g>
<g>
</g>
<g>
</g>
<g>
</g>
<g>
</g>
<g>
</g>
<g>
</g>
<g>
</g>
<g>
</g>
<g>
</g>
<g>
</g>
<g>
</g>
<g>
</g>
</svg>
